<?xml version="1.0" encoding="utf-8"?>
<!-- Generator: Adobe Illustrator 14.0.0, SVG Export Plug-In . SVG Version: 6.00 Build 43363)  -->
<!DOCTYPE svg PUBLIC "-//W3C//DTD SVG 1.1//EN" "http://www.w3.org/Graphics/SVG/1.1/DTD/svg11.dtd">
<svg version="1.1" id="Layer_1" xmlns="http://www.w3.org/2000/svg" xmlns:xlink="http://www.w3.org/1999/xlink" x="0px" y="0px"
	 width="448px" height="488px" viewBox="0 0 448 488" enable-background="new 0 0 448 488" xml:space="preserve">
<g>
	<path fill="#3FA9F5" stroke="#3FA9F5" d="M171.333,65.333v24c0,0-24.119,8.388-24,15.333c0.084,4.921,17.333,9.333,17.333,9.333
		l-13.333,160c0,0,84.667,50,115.333,32s-18-190-18-190s18.02-8.473,17.333-14c-0.882-7.104-27.833-12.667-27.833-12.667v-24
		H171.333z"/>
	<line fill="#3FA9F5" stroke="#3FA9F5" stroke-width="2" x1="172.333" y1="65.333" x2="172.333" y2="45.333"/>
	<line fill="#3FA9F5" stroke="#3FA9F5" stroke-width="2" x1="237" y1="65.333" x2="237" y2="45.333"/>
	<line fill="#3FA9F5" stroke="#3FA9F5" stroke-width="4" x1="180.667" y1="65.333" x2="180.667" y2="44"/>
	<line fill="#3FA9F5" stroke="#3FA9F5" stroke-width="4" x1="229" y1="65.333" x2="229" y2="44"/>
	<line fill="#3FA9F5" stroke="#3FA9F5" stroke-width="5" x1="205.333" y1="65.333" x2="205.333" y2="39.333"/>
	<path fill="#3FA9F5" stroke="#3FA9F5" d="M156,48.667l49.333-9.333l50,9.333l-44.221-30.135c0,0-2.119-9.609-5.778-9.531
		c-3.951,0.084-5.916,9.531-5.916,9.531L156,48.667z"/>
	<path fill="#3FA9F5" stroke="#3FA9F5" d="M35,260.5c0,0,40.793,14.232,53.459,20.996c19.397,10.357,50.186,34.828,72.527,49.764
		c43.238,28.905,86.259,34.914,115.821,30.251c20.069-3.166,56.452-19.428,77.438-24.666C378.221,330.86,413,342.5,413,342.5
		s-13.452-19.395-26.688-27.474C377.086,309.396,369,304,345,304c-12.535,0-32.287,4.236-42.5,7.75
		c-11.302,3.889-22.032,11.718-47.167,11.718c-27.111,0-80.017-19.331-104.736-30.468c-19.014-8.566-48.237-21.026-66.597-30.915
		C71.376,255.286,35,260.5,35,260.5z"/>
	<path fill="#3FA9F5" stroke="#3FA9F5" d="M85.611,294.896c0,0,36.07,49.285,50.822,63.191
		c20.303,19.14,58.626,41.71,106.678,32.809c43.188-8,43-15.5,43-15.5s-42.992,6.461-72.429-4.5
		c-18.91-7.041-54.072-27.423-70.938-38.5C128.463,323.018,85.611,294.896,85.611,294.896z"/>
</g>
<g>
	<path fill="#3FA9F5" stroke="#3FA9F5" d="M41.7,465.298v-48.875h39.711c2.534,0,4.694,0.894,6.483,2.681
		c1.787,1.789,2.681,3.949,2.681,6.483v30.547c0,2.535-0.894,4.695-2.681,6.482c-1.789,1.789-3.949,2.682-6.483,2.682H41.7z
		 M52.29,457.084h27.628c1.131,0,1.821-0.112,2.07-0.339c0.249-0.227,0.374-0.905,0.374-2.037v-27.695
		c0-1.132-0.125-1.811-0.374-2.036c-0.249-0.227-0.939-0.341-2.07-0.341H52.29c-1.131,0-1.822,0.114-2.07,0.341
		c-0.249,0.226-0.373,0.904-0.373,2.036v27.695c0,1.132,0.124,1.811,0.373,2.037C50.468,456.972,51.158,457.084,52.29,457.084z"/>
	<path fill="#3FA9F5" stroke="#3FA9F5" d="M97.568,421.175v-8.146h8.078v8.146H97.568z M97.568,465.298v-39.371h8.078v39.371H97.568
		z"/>
	<path fill="#3FA9F5" stroke="#3FA9F5" d="M118.407,480.843v-8.146h22.74c1.131,0,1.821-0.124,2.071-0.373
		c0.248-0.25,0.373-0.94,0.373-2.07v-4.955h-22.808c-2.489,0-4.628-0.893-6.415-2.682c-1.788-1.787-2.681-3.926-2.681-6.415v-21.179
		c0-2.488,0.893-4.627,2.681-6.415c1.787-1.787,3.926-2.681,6.415-2.681h21.857c2.534,0,4.672,0.894,6.416,2.681
		c1.741,1.788,2.613,3.927,2.613,6.415v36.724c0,2.534-0.872,4.684-2.613,6.449c-1.743,1.765-3.881,2.647-6.416,2.647H118.407z
		 M122.208,457.22h18.939c1.131,0,1.821-0.125,2.071-0.373c0.248-0.249,0.373-0.939,0.373-2.07v-18.328
		c0-1.131-0.125-1.821-0.373-2.071c-0.25-0.248-0.94-0.373-2.071-0.373h-18.939c-1.131,0-1.822,0.125-2.07,0.373
		c-0.25,0.25-0.374,0.94-0.374,2.071v18.328c0,1.131,0.124,1.821,0.374,2.07C120.386,457.095,121.077,457.22,122.208,457.22z"/>
	<path fill="#3FA9F5" stroke="#3FA9F5" d="M158.797,421.175v-8.146h8.078v8.146H158.797z M158.797,465.298v-39.371h8.078v39.371
		H158.797z"/>
	<path fill="#3FA9F5" stroke="#3FA9F5" d="M221.042,465.298l-28.306-48.875h9.503l22.606,39.304l22.67-39.304h9.438l-28.309,48.875
		H221.042z"/>
	<path fill="#3FA9F5" stroke="#3FA9F5" d="M282.203,421.175v-8.146h8.078v8.146H282.203z M282.203,465.298v-39.371h8.078v39.371
		H282.203z"/>
	<path fill="#3FA9F5" stroke="#3FA9F5" d="M303.043,480.843v-8.146h22.74c1.129,0,1.82-0.124,2.07-0.373
		c0.248-0.25,0.373-0.94,0.373-2.07v-4.955h-22.809c-2.488,0-4.627-0.893-6.414-2.682c-1.789-1.787-2.682-3.926-2.682-6.415v-21.179
		c0-2.488,0.893-4.627,2.682-6.415c1.787-1.787,3.926-2.681,6.414-2.681h21.857c2.535,0,4.672,0.894,6.416,2.681
		c1.74,1.788,2.613,3.927,2.613,6.415v36.724c0,2.534-0.873,4.684-2.613,6.449c-1.744,1.765-3.881,2.647-6.416,2.647H303.043z
		 M306.844,457.22h18.939c1.129,0,1.82-0.125,2.07-0.373c0.248-0.249,0.373-0.939,0.373-2.07v-18.328
		c0-1.131-0.125-1.821-0.373-2.071c-0.25-0.248-0.941-0.373-2.07-0.373h-18.939c-1.133,0-1.822,0.125-2.07,0.373
		c-0.25,0.25-0.375,0.94-0.375,2.071v18.328c0,1.131,0.125,1.821,0.375,2.07C305.021,457.095,305.711,457.22,306.844,457.22z"/>
	<path fill="#3FA9F5" stroke="#3FA9F5" d="M343.432,421.175v-8.146h8.078v8.146H343.432z M343.432,465.298v-39.371h8.078v39.371
		H343.432z"/>
	<path fill="#3FA9F5" stroke="#3FA9F5" d="M358.637,465.298v-48.942h8.146v40.729h40.729v8.214H358.637z"/>
</g>
</svg>
